<svg enable-background="new 0 0 753.289 1670.659" viewBox="0 0 753.289 1670.659" xmlns="http://www.w3.org/2000/svg"><path d="m416.34 257.76c1.688-1.128 3.908-1.697 5.201-3.137 15.87-17.681 33.887-6.6 40.105-19.864 2.803-5.978 5.205-12.112 7.642-18.202 2.548-6.368-4.772-20.745-11.464-23.305-28.59-10.934-33.55-35.238-38.749-45.232-16.556-31.825-4.683-76.556 28.87-95.001 17.89-9.835 37.438-15.911 58.36-15.419 7.881.186 22.946-5.65 34.913.739 9.317 4.974 20.78-5.769 33.576 10.981 4.623 6.052 11.811 10.679 8.514 20.316-.806 2.356 1.013 5.776 3.731 7.434 3.406 2.077 4.834 5.804 7.509 8.45 5.922 5.859 8.049 11.994 3.858 20.139-3.541 6.882 3.342 10.874 6.447 15.52 3.517 5.263 9.236 8.759 12.851 14.163 11.416 17.062-13.06 12.312-4.994 22.744 6.873 8.89-2.948 15.737 3.648 24.053 1.804 2.275 1.602 4.905 1.445 7.531-1.003 16.746 7.721 31.179-10.028 37.569-9.382 3.378-17.627 8.985-26.844 12.663-5.063 2.02-8.313 6.025-9.395 11.755-.977 5.174-17.65 41.487 6.34 47.831 21.129 5.588 65.306 24.095 77.819 45.602 8.243 14.169 12.363-7.18 47.626 13.833 4.498 2.681 1.546 12.337 10.189 15.11 2.678.859 3.467 4.082 3.267 6.706-1.094 14.316 3.987 28.501 1.659 42.655-2.751 16.728 2.224 34.202-3.412 50.147-12.422 35.14-5.351 78.397-20.791 108.16-19.586 37.749-23.453 51.487-43.394 61.484-9.513 4.769-15.909 2.857-22.858-5.502-20.941-25.189-21.12-32.738-24.321-23.996-7.384 20.166-15.989 39.976-21.903 60.56-5.205 18.117-7.874 36.954-14.629 54.739-2.308 6.078.938 12.168 2.31 17.982 3.732 15.824 3.925 31.716 2.678 47.736-1.071 13.767-5.901 15.784-12.106 15.644-10.251-.231-10.042.179-12.575 9.694-8.057 30.272 26.222 37.995 49.961 73.491 49.921 74.645 103.06 135.57 86.178 170.1-36.897 75.492-36.237 37.854-127.83 105.1-37.365 27.433-80.665 40.309-126.29 83.554-8.967 8.5-18.644 16.043-26.274 26.019-3.929 5.136-5.533 11.326-9.572 16.391-2.189 2.745-2.665 7.609 1.525 10.917 6.551 5.173-6.868 32.203-10.378 38.301-4.474 7.775-6.368 16.699-6.778 25.85-.517 11.551-2.11 23.041-1.734 34.656.081 2.51-.534 5.644-2.044 7.504-10.997 13.547 2.223 26.873 10.477 43.353 14.607 29.166-15.781 36.229-40.912 22.672-8.999-4.855 4.315-5.468-17.647-16.218-1.949-.954-3.917-2.795-3.832-4.511.684-13.736-28.17-19.119-17.295-35.292 1.348-2.005-.078-5.728-3.679-6.751-9.196-2.614-13.436-9.305-11.013-18.353 1.023-3.819 2.841-6.811-2.466-9.026-3.477-1.452-3.978-5.744-2.28-8.37 3.669-5.673-1.108-13.521-.773-14.902 4.045-16.69-10.92-25.256-16.441-37.809-6.513-14.805-21.812 12.482-29.965 27.051-16.767 29.963-34.236 59.536-43.739 93.014-2.971 10.466-8.453 20.208-7.946 31.549.051 1.14-.737 2.968-.256 3.34 7.677 5.939 4.397 16.315 9.486 23.156 3.444 4.63 4.189 9.838 2.825 14.925-5.276 19.673 3.868 37.156-5.202 43.409-6.932 4.779-7.215 13.395-.122 17.567 9.348 5.5 7.934 10.862 17.179 10.232 9.55-.651 9.635 6.356 12.318 9.002 10.213 10.074 10.397 11.366 3.855 23.742-1.724 3.262-4.675 4.243-7.866 4.747-8.057 1.273-15.936 4.078-23.886 4.895-13.436 1.381-27.098 3.406-40.608.502-2.958-.636-8.005.226-7.275-6.083.178-1.54-3.478-2.594-5.754-2.93-11.573-1.706-18.532-11.067-27.728-16.704-1.373-.842-3.432-2.904-2.587-4.176 4.377-6.585-2.25-6.978-4.828-10.111-5.088-6.181-12.27-11.808-9.934-21.492.979-4.058-1.89-5.123-4.561-6.212-31.16-12.711-35.931-41.309-50.712-49.669-8.436-4.772-12.309-36.718 9.208-48.972 78.554-44.736 67.955-7.878 115.61-149.97 10.45-31.157-.026-35.702 21.604-100.72 3.18-9.558 11.087-17.9 16.487-26.241 22.574-34.872 34.265-57.42 45.521-60.565 4.394-1.228 6.542-4.359 7.294-8.837 8.181-48.712 35.358-96.53 40.712-120.22 3.29-14.553 8.91-28.351 14.801-42.031 10.552-24.505 15.457-50.709 22.72-76.203 1.336-4.689.859-9.046-2.885-12.934-3.605-3.743-19.894-41.709-22.872-59.818-1.931-11.742-1.76-23.826.549-35.626 3.029-15.478 3.788-31.305 7.445-46.687.992-4.173-3.18-22.327 4.914-32.86 4.211-5.479 3.459-13.408 3.999-20.36 10.155-130.83 23.126-97.648 4.028-277.56-.842-7.936-2.044-8.504-9.833-7.335-9.095 1.364-16.464 6.888-24.82 10.038-64.865 24.453-74.848-.056-56.883 42.772 9.319 22.217 8.035 43.83 39.892 86.444 7.004 9.369 29.621 29.75 29.62 60.293-.002 34.804 14.99 38.4-6.702 73.815-3.167 5.17-8.653 6.828-14.493 3.6-3.597-1.988-6.822-1.457-10.597-.236-17.453 5.646-32.212-4.645-39.772-1.404-2.738 1.174-5.572-1.389-8.079-2.656-4.493-2.273-4.5-10.301 2.573-9.935 12.363.639.45-5.939 5.645-19.869 5.916-15.864 9.081-32.438 12.617-48.92 1.049-4.89.49-9.22-3.118-12.969-32.108-33.368-18.932-15.636-59.434-69.732-17.374-23.205-47.299-87.744-52.404-95.825-3.61-5.713-.998-11.999-1.298-17.966-.353-7.016 5.912-9.116 11.178-11.852 22.989-11.942 29.962-34.55 85.679-53.684 38.43-13.197 54.246-11.261 66.491-26.158 11.295-13.742 27.233-21.996 45.138-25.47 9.135-1.773 17.446-6.732 27.042-6.867 24.368-.341 34.934 3.363 47.726-5.184zm-94.209 971.02c38.887 1.96 68.549-35.109 85.742-51.069 14.106-13.094 27.129-27.704 36.197-44.696 40.242-75.4 88.247-83.644 96.71-86.498 5.118-1.726 7.083-8.252 2.826-11.426-7.225-5.386-14.671-11.375-23.009-14.104-22.754-7.446-31.857-19.447-38.632-3.595-5.837 13.658-8.705 9.861-22.288 37.138-4.29 8.614-7.617 19.52-20.692 19.542-2.861.005-4.036 3.024-5.848 4.879-9.854 10.094-18.482 21.413-30.336 29.517-10.722 7.33-19.76 27.424-24.207 39.599-13.371 36.605-52.948 43.348-64.043 70.799-2.862 7.081 1.241 9.595 7.58 9.914zm358.06-782.99c.414-5.376-.703-21.559-6.64-20.453-3.265.608-1.978 4.757-1.825 7.536 1.213 21.971-9.292 12.286-6.147 23.96 4 14.844.284 21.792 6.812 21.832 8.664.052 6.216-23.551 7.8-32.875zm-6.685-79.534c-1.108-2.116-7.466-1.978-6.401.814.793 2.079 2.805 1.346 4.422 1.304 1.317-.034 2.065-.704 1.979-2.118z"/></svg>